<svg width="360" height="40" viewBox="0 0 360 40" fill="none" xmlns="http://www.w3.org/2000/svg">
<path fill-rule="evenodd" clip-rule="evenodd" d="M22.0278 39.624V3.41259e-06L22.0278 0L44.1743 39.624H22.0278Z" fill="#E6B79D"/>
<path fill-rule="evenodd" clip-rule="evenodd" d="M22.1464 39.624V1.36504e-05L22.1464 0L-3.43323e-05 39.624H22.1464Z" fill="#077644"/>
<path fill-rule="evenodd" clip-rule="evenodd" d="M84.0597 19.7172H64.3111L64.3111 0.000396729C75.1877 0.0681281 83.9919 8.85815 84.0597 19.7172Z" fill="#077644"/>
<path fill-rule="evenodd" clip-rule="evenodd" d="M44.562 19.7172L64.3107 19.7172L64.3107 39.434C53.4341 39.3663 44.6299 30.5762 44.562 19.7172Z" fill="#E6B79D"/>
<path fill-rule="evenodd" clip-rule="evenodd" d="M64.3107 4.04982e-06L64.3107 19.7168L44.562 19.7168C44.6299 8.85775 53.4341 0.0677339 64.3107 4.04982e-06Z" fill="#3038FF"/>
<path fill-rule="evenodd" clip-rule="evenodd" d="M64.3111 39.434L64.3111 19.7172L84.0597 19.7172C83.9919 30.5762 75.1877 39.3663 64.3111 39.434Z" fill="#3038FF"/>
<path d="M115.837 29.5926H101.231L97.186 39.5795H92.1424L108.744 0H109.059L125.661 39.5795H119.777L115.837 29.5926ZM114.103 25.1774L108.692 11.3009L103.07 25.1774H114.103Z" fill="#E6B79D"/>
<path d="M151.046 39.5795L142.114 25.5453C141.834 25.5804 141.414 25.5979 140.854 25.5979H135.232V39.5795H130.136V1.57687H140.276C142.868 1.57687 145.179 2.03241 147.211 2.9435C149.242 3.85458 150.836 5.20368 151.992 6.9908C153.147 8.74288 153.725 10.8629 153.725 13.3509C153.725 15.6986 153.2 17.8537 152.149 19.816C151.133 21.7784 149.557 23.2676 147.421 24.2838L156.983 39.5795H151.046ZM140.749 20.657C143.48 20.657 145.442 19.9387 146.633 18.502C147.859 17.0653 148.472 15.4183 148.472 13.5611C148.472 12.4398 148.209 11.336 147.683 10.2497C147.193 9.16338 146.388 8.26982 145.267 7.56899C144.181 6.83311 142.797 6.46518 141.116 6.46518H135.232V20.657H140.749Z" fill="#E6B79D"/>
<path d="M167.288 1.57687V39.5795H162.192V1.57687H167.288Z" fill="#E6B79D"/>
<path d="M195.484 29.5926H180.879L176.833 39.5795H171.79L188.392 0H188.707L205.309 39.5795H199.425L195.484 29.5926ZM193.75 25.1774L188.339 11.3009L182.718 25.1774H193.75Z" fill="#E6B79D"/>
<path d="M221.416 20.6045C221.416 17.1354 222.291 13.9115 224.042 10.933C225.794 7.95445 228.14 5.58914 231.082 3.83706C234.059 2.04994 237.299 1.15637 240.802 1.15637C244.269 1.15637 247.492 2.04994 250.469 3.83706C253.446 5.58914 255.81 7.95445 257.561 10.933C259.347 13.9115 260.241 17.1354 260.241 20.6045C260.241 24.1086 259.365 27.35 257.614 30.3285C255.863 33.3071 253.481 35.6724 250.469 37.4244C247.492 39.1415 244.269 40 240.802 40C237.299 40 234.059 39.1415 231.082 37.4244C228.105 35.7074 225.741 33.3771 223.99 30.4336C222.274 27.4551 221.416 24.1787 221.416 20.6045ZM226.669 20.657C226.669 23.2501 227.3 25.6505 228.561 27.8581C229.821 30.0657 231.538 31.8178 233.709 33.1143C235.916 34.4109 238.315 35.0591 240.907 35.0591C243.499 35.0591 245.863 34.4284 247.999 33.1669C250.171 31.8703 251.87 30.1183 253.096 27.9106C254.356 25.668 254.987 23.2326 254.987 20.6045C254.987 17.9763 254.356 15.541 253.096 13.2983C251.835 11.0556 250.118 9.28603 247.947 7.98949C245.775 6.69295 243.394 6.04468 240.802 6.04468C238.21 6.04468 235.828 6.71047 233.657 8.04205C231.485 9.33859 229.769 11.1082 228.508 13.3509C227.282 15.5935 226.669 18.0289 226.669 20.657Z" fill="#E6B79D"/>
<path d="M285.848 8.35742C284.483 7.62155 283.029 7.02584 281.488 6.5703C279.947 6.11476 278.493 5.88699 277.127 5.88699C275.061 5.88699 273.415 6.36005 272.189 7.30618C270.998 8.21726 270.402 9.47876 270.402 11.0907C270.402 12.6675 271.103 13.9641 272.504 14.9803C273.94 15.9615 275.971 16.9426 278.598 17.9238C280.56 18.6246 282.206 19.3955 283.537 20.2365C284.903 21.0425 286.024 22.1813 286.899 23.6531C287.81 25.0898 288.265 26.9295 288.265 29.1721C288.265 31.2046 287.757 33.0442 286.742 34.6912C285.726 36.3382 284.272 37.6347 282.381 38.5808C280.525 39.5269 278.336 40 275.814 40C273.467 40 271.208 39.6321 269.037 38.8962C266.865 38.1253 264.956 37.1616 263.31 36.0053L265.569 31.958C266.865 32.9391 268.424 33.7801 270.245 34.4809C272.066 35.1467 273.765 35.4796 275.341 35.4796C277.372 35.4796 279.141 34.954 280.647 33.9028C282.188 32.8515 282.959 31.2922 282.959 29.2247C282.959 27.4726 282.311 26.0885 281.015 25.0723C279.754 24.021 277.968 23.0399 275.656 22.1288C273.52 21.3228 271.733 20.5344 270.297 19.7635C268.896 18.9926 267.688 17.9413 266.672 16.6097C265.657 15.2431 265.149 13.5436 265.149 11.5112C265.149 8.53263 266.182 6.13228 268.248 4.31012C270.35 2.45291 273.064 1.47175 276.392 1.36662C280.49 1.36662 284.29 2.38283 287.792 4.41524L285.848 8.35742Z" fill="#E6B79D"/>
<path d="M299.247 1.57687V34.6386H318.581V39.5795H294.151V1.57687H299.247Z" fill="#E6B79D"/>
<path d="M321.175 20.6045C321.175 17.1354 322.051 13.9115 323.802 10.933C325.553 7.95445 327.9 5.58914 330.842 3.83706C333.819 2.04994 337.059 1.15637 340.561 1.15637C344.029 1.15637 347.251 2.04994 350.228 3.83706C353.205 5.58914 355.569 7.95445 357.321 10.933C359.107 13.9115 360 17.1354 360 20.6045C360 24.1086 359.124 27.35 357.373 30.3285C355.622 33.3071 353.24 35.6724 350.228 37.4244C347.251 39.1415 344.029 40 340.561 40C337.059 40 333.819 39.1415 330.842 37.4244C327.865 35.7074 325.501 33.3771 323.749 30.4336C322.033 27.4551 321.175 24.1787 321.175 20.6045ZM326.429 20.657C326.429 23.2501 327.059 25.6505 328.32 27.8581C329.581 30.0657 331.297 31.8178 333.469 33.1143C335.675 34.4109 338.074 35.0591 340.666 35.0591C343.258 35.0591 345.622 34.4284 347.759 33.1669C349.93 31.8703 351.629 30.1183 352.855 27.9106C354.116 25.668 354.746 23.2326 354.746 20.6045C354.746 17.9763 354.116 15.541 352.855 13.2983C351.594 11.0556 349.878 9.28603 347.706 7.98949C345.535 6.69295 343.153 6.04468 340.561 6.04468C337.969 6.04468 335.588 6.71047 333.416 8.04205C331.245 9.33859 329.528 11.1082 328.267 13.3509C327.042 15.5935 326.429 18.0289 326.429 20.657Z" fill="#E6B79D"/>
</svg>
